<svg  viewBox="0 0 24 24" fill="#048FCC" xmlns="http://www.w3.org/2000/svg">
    <path d="M21.75 12C21.75 6.61547 17.3845 2.25 12 2.25C6.61547 2.25 2.25 6.61547 2.25 12C2.25 17.3845 6.61547 21.75 12 21.75C17.3845 21.75 21.75 17.3845 21.75 12Z" stroke="white" stroke-width="1.5" stroke-miterlimit="10"/>
    <path d="M20.8861 8.06974C20.1333 8.07443 20.2073 9.46334 19.2694 8.80802C18.9211 8.56521 18.7069 8.21224 18.2695 8.1049C17.8875 8.01115 17.4961 8.10865 17.1187 8.17381C16.6898 8.24787 16.1812 8.28115 15.8559 8.60599C15.5414 8.91865 15.375 9.33818 15.0403 9.65271C14.3929 10.2621 14.1197 10.9272 14.5387 11.7888C14.9419 12.6171 15.7851 13.0666 16.695 13.0076C17.5889 12.948 18.5175 12.4296 18.4917 13.7285C18.4823 14.1879 18.5784 14.5066 18.7195 14.9336C18.8503 15.3274 18.8414 15.709 18.8714 16.1154C18.9267 16.8747 19.0664 17.726 19.4433 18.3968L20.1464 17.4049C20.2331 17.2821 20.4145 17.1101 20.4576 16.9652C20.534 16.7088 20.3836 16.2682 20.3662 15.9808C20.3489 15.6935 20.3573 15.4024 20.3133 15.1151C20.2514 14.7124 20.0133 14.3351 19.9804 13.9371C19.92 13.196 20.0554 12.6044 19.4845 11.9847C18.9333 11.3871 18.1251 11.2436 17.3531 11.3651C16.964 11.426 15.3979 11.6763 16.0265 10.7871C16.1508 10.6122 16.3678 10.4688 16.5075 10.3024C16.6289 10.1576 16.7344 9.8913 16.8769 9.77834C17.0194 9.66537 17.6737 9.53552 17.8612 9.59318C18.0487 9.65084 18.2442 9.92131 18.4069 10.0413C18.7074 10.2677 19.0581 10.4182 19.4292 10.4801C20.0695 10.5738 21.4083 10.2016 21.3979 9.38037C21.3961 8.98662 21.0304 8.43818 20.8861 8.06974ZM13.4742 14.8272C13.2244 13.7754 11.7951 13.4238 11.0245 12.8533C10.5815 12.5252 10.1873 12.0185 9.6056 11.9772C9.33748 11.958 9.11294 12.0161 8.84716 11.9472C8.60341 11.8844 8.41216 11.7532 8.15248 11.7874C7.66732 11.8511 7.36123 12.3696 6.83998 12.2993C6.34544 12.2327 5.83591 11.6543 5.72341 11.1832C5.57904 10.5776 6.0581 10.3811 6.57138 10.3272C6.7856 10.3047 7.02607 10.2804 7.23185 10.3586C7.50279 10.4594 7.63076 10.7247 7.87404 10.8588C8.33013 11.1086 8.42248 10.7093 8.35263 10.3043C8.2481 9.69771 8.12623 9.45021 8.66716 9.03302C9.04216 8.74521 9.36279 8.53709 9.30279 8.02006C9.26716 7.71631 9.10076 7.57896 9.25591 7.27662C9.37357 7.04646 9.69654 6.83881 9.90701 6.70146C10.4503 6.34709 12.2344 6.37334 11.5054 5.38146C11.2912 5.09037 10.8961 4.57006 10.5211 4.49881C10.0523 4.41021 9.84419 4.93334 9.51748 5.16396C9.17998 5.40256 8.52279 5.67349 8.18482 5.30459C7.73013 4.80818 8.48623 4.64506 8.65357 4.29865C8.82091 3.95224 8.26591 3.2974 7.96873 3.13146L6.57138 4.69849C6.53124 4.96093 6.54521 5.2288 6.61245 5.48563C6.67968 5.74246 6.79874 5.98282 6.96232 6.19193C7.24029 6.54959 7.68279 6.66443 7.70294 7.15287C7.72263 7.62162 7.64951 7.86162 7.34294 8.19115C7.21029 8.33177 7.11654 8.53146 6.98154 8.66318C6.81607 8.82396 6.87748 8.77474 6.61919 8.8188C6.13357 8.90084 5.72013 9.0274 5.25091 9.15677C4.46904 9.37287 4.39685 8.09552 4.0406 7.59443L2.86873 8.54084C2.85607 8.69599 3.06091 8.98146 3.11669 9.15021C3.43685 10.1144 4.08279 10.8602 4.49998 11.7827C4.93919 12.7596 6.11857 12.4886 6.63935 13.3446C7.10154 14.104 6.60794 15.0654 6.95388 15.8604C7.20513 16.4374 7.79763 16.5635 8.20638 16.9854C8.62404 17.4115 8.61513 17.9946 8.67888 18.5491C8.75078 19.2014 8.86746 19.8479 9.0281 20.4841C9.08482 20.704 9.13685 20.9946 9.28732 21.176C9.39044 21.3007 9.74435 21.408 9.60138 21.4493C9.80107 21.4821 10.1569 21.6686 10.3233 21.5318C10.5426 21.3518 10.484 20.7977 10.522 20.5474C10.6359 19.8021 11.009 19.0732 11.5125 18.5154C12.0098 17.9651 12.6914 17.5924 13.1114 16.9685C13.5206 16.3601 13.6439 15.5393 13.4742 14.8272ZM11.909 16.061C11.6278 16.563 11.0015 16.8991 10.5989 17.298C10.4897 17.4063 10.2572 17.7813 10.1203 17.7002C10.0223 17.6421 9.98904 17.1555 9.95294 17.044C9.76674 16.4822 9.41126 15.9918 8.93529 15.6401C8.78857 15.529 8.42482 15.3846 8.34091 15.2322C8.24716 15.0668 8.33154 14.6763 8.33482 14.4963C8.33998 14.2338 8.22044 13.7974 8.28513 13.5588C8.36013 13.2836 8.21576 13.4496 8.46185 13.3952C8.59169 13.3661 9.12794 13.4604 9.28966 13.4941C9.54654 13.5476 9.6881 13.7074 9.8906 13.8691C10.4231 14.2961 11.0095 14.6266 11.6062 14.9538C12.0684 15.2097 12.2044 15.5336 11.909 16.061ZM8.64654 3.14552C8.86873 3.36256 9.07779 3.61943 9.40919 3.64099C9.72279 3.66209 10.0186 3.4924 10.2923 3.70568C10.5961 3.94006 10.815 4.23677 11.2181 4.3099C11.6081 4.38068 12.0211 4.15287 12.1176 3.75396C12.2114 3.37381 12.0094 2.96037 11.9972 2.57881C11.9972 2.52584 12.0258 2.29052 11.9892 2.25068C11.962 2.22068 11.7351 2.25443 11.7004 2.25537C11.4464 2.26287 11.1929 2.28037 10.9401 2.30787C10.0185 2.40762 9.11589 2.63888 8.25982 2.99459C8.37373 3.07334 8.51669 3.10474 8.64654 3.14552ZM16.7062 5.77896C17.1042 5.77896 17.5083 5.60084 17.3798 5.14052C17.272 4.75474 17.0883 4.33615 16.6411 4.54427C16.3565 4.67646 15.9534 5.01302 15.9201 5.34677C15.8822 5.72552 16.4409 5.77896 16.7062 5.77896ZM16.3884 7.79318C16.7948 8.03646 17.3976 7.92209 17.7042 7.57474C17.9437 7.30287 18.0848 6.83084 18.5156 6.83131C18.7053 6.83091 18.8874 6.90517 19.0228 7.03802C19.2009 7.22224 19.1658 7.39521 19.2037 7.62584C19.2886 8.14381 19.844 7.65537 19.9889 7.45474C20.0826 7.32396 20.2097 7.1299 20.167 6.95974C20.1276 6.80084 19.942 6.63162 19.8595 6.48584C19.6186 6.06396 19.4203 5.57318 19.0594 5.2324C18.712 4.90427 18.285 4.94224 17.9554 5.28302C17.6854 5.56427 17.3719 5.78693 17.1872 6.12912C17.0569 6.36959 16.9101 6.48443 16.6462 6.54677C16.5009 6.58099 16.335 6.59365 16.2131 6.69115C15.8737 6.95834 16.0669 7.60006 16.3884 7.79318Z" fill="white"/>
</svg>
